HIERARCHY
ROOT Hips
{
	OFFSET -3.958830 18.904000 13.208200
	CHANNELS 6 Xposition Yposition Zposition Zrotation Yrotation Xrotation 
	JOINT LHipJoint
	{
		OFFSET 0.000000 0.000000 0.000000
		CHANNELS 3 Zrotation Yrotation Xrotation
		JOINT LeftUpLeg
		{
			OFFSET 1.800000 -1.400000 0.085000
			CHANNELS 3 Zrotation Yrotation Xrotation
			JOINT LeftLeg
			{
				OFFSET 2.215000 -6.000000 0.000000
				CHANNELS 3 Zrotation Yrotation Xrotation
				JOINT LeftFoot
				{
					OFFSET 2.500000 -6.900000 0.000000
					CHANNELS 3 Zrotation Yrotation Xrotation
					JOINT LeftToeBase
					{
						OFFSET 0.200000 -0.500000 1.950000
						CHANNELS 3 Zrotation Yrotation Xrotation
						End Site
						{
							OFFSET 0.000000 0.000000 0.000000
						}
					}
				}
			}
		}
	}
	JOINT RHipJoint
	{
		OFFSET 0.000000 0.000000 0.000000
		CHANNELS 3 Zrotation Yrotation Xrotation
		JOINT RightUpLeg
		{
			OFFSET -1.800000 -1.400000 0.085000
			CHANNELS 3 Zrotation Yrotation Xrotation
			JOINT RightLeg
			{
				OFFSET -2.215000 -6.000000 0.000000
				CHANNELS 3 Zrotation Yrotation Xrotation
				JOINT RightFoot
				{
					OFFSET -2.500000 -6.900000 0.000000
					CHANNELS 3 Zrotation Yrotation Xrotation
					JOINT RightToeBase
					{
						OFFSET -0.200000 -0.500000 1.950000
						CHANNELS 3 Zrotation Yrotation Xrotation
						End Site
						{
							OFFSET 0.000000 0.000000 0.000000
						}
					}
				}
			}
		}
	}
	JOINT LowerBack
	{
		OFFSET 0.000000 0.000000 0.000000
		CHANNELS 3 Zrotation Yrotation Xrotation
		JOINT Spine
		{
			OFFSET -0.087000 1.940000 -0.288900
			CHANNELS 3 Zrotation Yrotation Xrotation
			JOINT Spine1
			{
				OFFSET 0.000000 1.950000 0.060000
				CHANNELS 3 Zrotation Yrotation Xrotation
				JOINT Neck
				{
					OFFSET 0.000000 0.000000 0.000000
					CHANNELS 3 Zrotation Yrotation Xrotation
					JOINT Neck1
					{
						OFFSET 0.000000 1.600000 0.340000
						CHANNELS 3 Zrotation Yrotation Xrotation
						JOINT Head
						{
							OFFSET 0.000000 1.667000 -0.240000
							CHANNELS 3 Zrotation Yrotation Xrotation
							End Site
							{
								OFFSET 0.000000 0.000000 0.000000
							}
						}
					}
				}
				JOINT LeftShoulder
				{
					OFFSET 0.000000 0.000000 0.000000
					CHANNELS 3 Zrotation Yrotation Xrotation
					JOINT LeftArm
					{
						OFFSET 2.700000 1.550000 -0.730000
						CHANNELS 3 Zrotation Yrotation Xrotation
						JOINT LeftForeArm
						{
							OFFSET 5.450000 0.000000 0.000000
							CHANNELS 3 Zrotation Yrotation Xrotation
							JOINT LeftHand
							{
								OFFSET 3.450000 0.000000 0.000000
								CHANNELS 3 Zrotation Yrotation Xrotation
								JOINT LeftHandIndex1
								{
									OFFSET 0.750000 0.000000 0.000000
									CHANNELS 3 Zrotation Yrotation Xrotation
									End Site
									{
										OFFSET 0.000000 0.000000 0.000000
									}
								}
							}
						}
					}
				}
				JOINT RightShoulder
				{
					OFFSET 0.000000 0.000000 0.000000
					CHANNELS 3 Zrotation Yrotation Xrotation
					JOINT RightArm
					{
						OFFSET -2.700000 1.550000 -0.730000
						CHANNELS 3 Zrotation Yrotation Xrotation
						JOINT RightForeArm
						{
							OFFSET -5.450000 0.000000 0.000000
							CHANNELS 3 Zrotation Yrotation Xrotation
							JOINT RightHand
							{
								OFFSET -3.450000 0.000000 0.000000
								CHANNELS 3 Zrotation Yrotation Xrotation
								JOINT RightHandIndex1
								{
									OFFSET -0.750000 0.000000 0.000000
									CHANNELS 3 Zrotation Yrotation Xrotation
									End Site
									{
										OFFSET 0.000000 0.000000 0.000000
									}
								}
							}
						}
					}
				}
			}
		}
	}
}
MOTION
Frames: 7
Frame Time: 0.016667
-11.043080 16.857590 0.530100 -6.684265 -5.313201 -11.694278 -15.118188 13.576258 4.233155 25.753454 2.523031 4.481885 -9.523053 6.211187 -1.942003 0.493096 5.854048 2.536128 0.509590 0.248820 0.516480 17.844828 -10.597935 2.911851 -30.332344 0.629184 0.029347 8.243265 -6.263675 8.879494 -0.765450 -4.658584 2.659574 -0.044460 -0.478610 -0.162500 -2.899635 -3.590130 -9.654632 28.157090 -4.088226 26.292954 -11.692652 4.691700 23.359632 6.328045 3.875615 -37.626543 5.725528 -16.163077 58.651638 14.287810 -20.799120 -25.588180 -5.469568 -36.487739 18.746790 -5.875955 11.107824 2.525030 -0.493236 8.436697 -0.916901 -3.162343 2.143378 0.829520 -0.677350 0.389490 0.041580 -9.160397 48.203028 14.118558 8.948171 32.193444 3.272598 -6.294905 -0.984915 1.495280 3.847175 -0.539561 -0.012960 0.160780 -0.238370 -0.166310 
-10.883940 16.905570 0.540260 -7.032392 -5.750734 -12.507515 -15.072293 13.544201 4.117484 25.459359 2.674219 5.244245 -9.742770 6.424517 -0.823205 0.493231 5.863304 2.528529 0.516240 0.262450 0.531450 17.879162 -10.914864 2.777129 -31.282591 1.143710 -1.729900 10.614810 -7.732554 15.243390 -0.743914 -5.052751 2.436447 -0.036610 -0.471860 -0.102230 -2.978584 -3.036456 -9.583548 27.741466 -2.958544 27.257755 -10.266780 4.132253 24.964344 5.778656 4.835153 -36.566081 8.532610 -17.853568 53.624061 13.939520 -20.095520 -26.169700 -3.158147 -36.519693 19.074814 -5.148990 10.916885 2.536619 -0.133731 2.151261 -0.555863 -2.935169 2.510531 0.790370 -0.644310 0.394500 0.031230 -10.480291 46.425455 13.545050 7.821585 33.182234 0.531842 -9.421660 1.758471 0.934313 3.857253 -0.775487 0.018490 0.112490 -0.237340 -0.159350 
-10.727790 16.974440 0.535540 -7.107488 -6.236726 -14.468956 -15.259209 13.823141 4.011257 25.392514 3.091171 6.970105 -9.648876 6.767116 -0.256239 0.420035 6.171311 2.442752 0.469000 0.246950 0.464700 17.799685 -10.528779 2.553551 -32.509958 2.141269 -2.013154 13.844109 -9.767537 22.010552 -0.766547 -5.846101 2.141433 0.022720 -0.355800 -0.128690 -2.630298 -4.422696 -9.057302 21.633521 -9.389827 28.548367 -18.917431 -4.856521 36.036752 12.950732 6.781775 -34.711437 0.576778 -13.791387 46.447612 15.246700 -18.180360 -27.116990 5.149727 -20.132156 13.141660 -9.562819 14.659424 2.420624 -0.457795 1.330923 -0.669842 -2.961195 2.412575 0.763570 -0.557190 0.311960 0.018190 -35.224598 29.208818 44.632802 -61.579254 34.528801 -168.041740 -2.179370 4.983024 1.626106 0.907891 -2.671883 -0.068400 0.201250 -0.162530 -0.170390 
-10.584500 17.039410 0.541680 -8.265441 -6.810140 -14.752000 -15.282355 13.691869 4.001853 25.983074 3.138397 7.666058 -9.790298 6.740277 -0.954774 0.427272 6.275583 2.383292 0.489610 0.272990 0.479040 17.843731 -10.241137 2.699039 -32.897231 4.114017 -4.044555 18.847433 -12.588750 28.585502 -0.941805 -6.855854 1.768640 0.034600 -0.386740 -0.131230 -2.662948 -4.470375 -9.069806 22.833755 -10.253193 29.100032 -19.962269 -5.440774 35.839556 13.836043 6.628536 -34.306783 -0.489650 -12.741079 47.234194 15.204720 -17.247850 -27.794130 5.575471 -22.008903 14.358854 -10.119305 16.319750 2.418939 -1.110973 3.828222 -1.039201 -2.983051 2.188819 0.792990 -0.573990 0.330750 0.007760 -37.272753 30.504603 42.428431 -62.614761 34.960354 -167.802937 -4.170186 3.274611 1.691102 0.158654 -2.611651 -0.065260 0.194460 -0.162860 -0.188220 
-10.445240 17.103680 0.552510 -9.514316 -7.209234 -14.804429 -15.323828 13.631508 3.991608 26.658314 3.179235 7.762644 -10.212152 6.854920 -0.992547 0.503551 6.367861 2.361200 0.520770 0.297190 0.507830 17.855140 -9.796138 3.012138 -33.302023 6.015802 -5.476712 24.663343 -15.745469 32.831577 -1.221147 -7.853860 1.455318 0.013870 -0.410720 -0.113460 -2.641235 -4.763034 -9.215354 24.308808 -11.281426 30.299143 -19.224854 -5.644754 34.101531 13.040679 6.570690 -35.058002 -1.484854 -11.823263 49.509995 15.614650 -17.036640 -28.743300 3.680377 -22.528599 14.387049 -9.475485 17.347196 2.343915 -0.803984 1.681268 -0.823196 -2.862640 2.321855 0.818850 -0.602040 0.377640 0.032420 -34.180557 30.695792 42.245821 -64.043092 36.667226 -167.193307 -5.089124 2.954787 1.766674 0.314099 -2.530275 -0.031690 0.187820 -0.200550 -0.178510 
-10.311830 17.167170 0.558480 -10.661213 -7.548087 -14.909698 -15.343592 13.509268 3.805061 27.186553 3.368897 7.803739 -10.011221 7.053035 -0.068818 0.629737 6.303095 2.376771 0.570710 0.410190 0.496770 17.900951 -9.370991 3.462530 -34.276892 7.930329 -7.062035 31.699937 -19.568251 35.927314 -1.583353 -8.918826 1.141677 0.015160 -0.429460 -0.070210 -2.684577 -4.864810 -9.305098 25.791479 -11.850768 31.047533 -18.704904 -6.180860 33.589001 12.742487 6.087465 -34.917739 -2.324449 -11.228797 50.118828 16.512560 -16.735100 -29.519920 2.953963 -23.215501 14.794618 -9.745672 18.146523 2.045322 -1.631558 0.537931 -0.791632 -2.741834 2.468978 0.761040 -0.614690 0.442540 0.082690 -32.834253 30.883143 40.839468 -65.226474 37.474858 -166.549530 -5.977447 2.152731 1.788123 0.184040 -2.533224 0.075450 0.148840 -0.261950 -0.104430 
-10.182770 17.212210 0.578660 -11.954294 -7.845224 -14.280116 -15.374093 13.268915 3.768447 27.733490 3.243716 7.497733 -10.320777 6.992926 -0.622425 0.608585 6.385099 2.344428 0.568520 0.383280 0.514210 17.948106 -8.873468 3.923351 -35.528056 9.361899 -9.086205 39.951718 -23.706187 37.088708 -1.893722 -9.763623 0.901392 0.011920 -0.437570 -0.072880 -2.723777 -4.989773 -9.485755 27.360569 -12.806496 31.072460 -18.642241 -6.669286 32.516742 12.814871 5.838491 -34.860525 -3.102815 -10.613782 50.540549 15.745910 -16.437440 -29.479210 2.260396 -22.979316 14.619138 -10.264391 18.179730 2.106242 0.257436 0.842147 -0.617991 -2.832373 2.485991 0.786100 -0.621440 0.435290 0.067690 -32.267090 30.610098 41.010949 -66.121728 38.771529 -166.776132 -5.361805 3.294346 1.820304 0.446004 -2.528700 0.054910 0.150030 -0.250500 -0.128530 
